<svg version="1.2" xmlns="http://www.w3.org/2000/svg" viewBox="0 0 2279 1975" width="2279" height="1975">
	<title>8e8d722b-6a0a-4da0-9ca2-3aba986f49e9</title>
	<style>
		.s0 { fill: #d72630 } 
		.s1 { fill: #09243f } 
		.s2 { fill: #041a34 } 
		.s3 { fill: #010d26 } 
		.s4 { fill: #000000 } 
		.s5 { fill: #000314 } 
		.s6 { fill: #a91921 } 
		.s7 { fill: #ee404c } 
	</style>
	<g id="BASE">
		<g id="&lt;Group&gt;">
			<path id="&lt;Path&gt;" class="s0" d="m2030.3 1092.8q0-0.1 0-0.2-0.1-1-0.3-2v-0.2q-0.2-1-0.3-1.9 0-0.2-0.1-0.3-0.1-1-0.3-1.9 0-0.2-0.1-0.3-0.1-1-0.4-2 0-0.1 0-0.1-0.6-3.2-1.4-6.4 0-0.1 0-0.1-0.3-1-0.5-2-0.1-0.2-0.1-0.4-0.3-0.8-0.5-1.6 0-0.3-0.1-0.5-0.2-0.8-0.5-1.5 0-0.3-0.1-0.6-0.2-0.7-0.5-1.4-0.1-0.4-0.2-0.7-0.2-0.7-0.4-1.4-0.1-0.3-0.2-0.6-0.3-0.7-0.5-1.5-0.1-0.2-0.2-0.5-0.3-0.9-0.7-1.8 0-0.1 0-0.1-0.4-1-0.7-2-0.1-0.2-0.2-0.4-0.3-0.8-0.6-1.6-0.1-0.3-0.3-0.6-0.2-0.7-0.5-1.3-0.2-0.4-0.3-0.8-0.3-0.5-0.5-1.1-0.2-0.4-0.4-0.8-0.2-0.5-0.5-1.1-0.2-0.4-0.3-0.8-0.3-0.6-0.6-1.1-0.1-0.4-0.3-0.8-0.3-0.6-0.6-1.2-0.2-0.3-0.4-0.7-0.3-0.6-0.6-1.2-0.1-0.3-0.3-0.6-0.5-1-1-1.9l-33.7-80.9q0 0 0 0l-110.9-266.3 256.6-458.2-15.4-65.6-1368.3 268.4-200.8 308.1c-8.6-39.9 5-69.6 5-69.6l-41.1 14.2c-23.2 48-1.7 95.1-1.7 95.1-45.6-50-21.7-156.1-21.7-156.1l-95.8 40.9c1.7 82.8 47.1 157.6 47.1 157.6-56.3-12.1-94.9-108.1-94.9-108.1-18.3 28.6-36.6 57.2-54.9 85.8 10.5 28.9 41.4 103.1 115.4 159l-247.8 380.1 18.7 53.2 460.3-84.9 120.2 288.8 31.2 74.9q3.9 13 10.4 25c34.5 63.8 117.1 94.8 227 94.8q1.4 0 2.8 0 7.8-0.1 15.8-0.3 0.4 0 0.8 0 0.6 0 1.3-0.1 1.7 0 3.5-0.1 1.7-0.1 3.4-0.1h0.3q0.4-0.1 0.8-0.1c140.4-6.5 319.3-59.5 498.1-155.9q1.1-0.6 2.2-1.2c147.9-80 271.1-176.4 356-272q0 0 0.1 0 1-1.2 2.1-2.4c88-99.7 134.3-198.3 123.4-276z"/>
			<path id="&lt;Path&gt;" class="s1" d="m2126.8 239.4l-15.4-65.6-1368.3 268.4-200.8 308.1c8 37 35.1 82.7 110.1 121.4 0 0 40.2 11.9 69.5 40.2q2.5 2.5 5 5.2 3.3-2.4 7.1-4.2c9.6-4.9 19.9-6.8 29.9-6.2q0.1 0 0.1 0c20 1.4 38.8 12.9 48.4 32.1q2.2 4.4 3.6 8.9c93.9-0.2 185.3-15 269.7-57q2.7-1.4 5.5-2.8c37.3-19.1 75.4-42.8 104.1-74.4q3.4-3.9 6.7-7.8c4.8-6 9.4-12.2 13.5-18.7q1.8-2.8 3.7-6.1c23.2-22.4 31-53.2 17-74.7-5-7.8-12.4-13.5-21.2-17q-0.1-0.1-0.3-0.1 0.2 0 0.4 0.1c11.7 2.9 22 9.7 28.8 21.6 15.4 26.7-1.5 62.5-20.6 89.3-5.2 7.4-10.6 14.1-15.6 19.7q-1.4 1.6-2.7 3c-30.1 32.9-68.5 57.7-108.1 77.9q-7.9 4-15.8 7.8c-82.9 39.5-170.1 61.5-262.4 56.6 0 21.4-11.8 41.9-32.2 52.2-26.4 13.3-58 4.7-74.3-18.9-11.4 8.6-24.6 16.8-39.9 23.6q-4.2 1.8-8.4 3.5c-17.9 6.9-35.8 10.8-53.3 12.5-85.4 8.1-162-37.6-182.1-49.6-10.3-6.1-19.9-12.6-28.8-19.3l-247.8 380.1 18.7 53.2 460.3-84.9 120.2 288.8 8.4 20.1c38.2 12.5 83.7 18.6 134.6 18.6q7.4 0 15-0.1c2-0.1 4-0.2 6-0.2 3.1-0.1 6.2-0.2 9.3-0.4 2.5-0.1 5-0.2 7.5-0.4 2.7-0.1 5.4-0.3 8.1-0.4 2.8-0.2 5.6-0.5 8.4-0.7 2.5-0.2 5-0.3 7.5-0.6 3-0.2 6-0.5 9-0.8 2.4-0.3 4.7-0.5 7.1-0.7 3.1-0.4 6.3-0.7 9.5-1.1 2.3-0.3 4.6-0.5 6.9-0.8 3.2-0.4 6.4-0.9 9.7-1.3q3.4-0.5 6.9-1c3.3-0.5 6.5-1 9.8-1.5q3.6-0.5 7.2-1.1 4.8-0.8 9.6-1.6 3.8-0.7 7.6-1.4 4.7-0.8 9.4-1.7 4-0.8 8.1-1.6 4.4-0.9 8.9-1.8 4.4-0.9 8.9-1.9 4.1-0.9 8.3-1.8 4.9-1.1 9.8-2.2 3.7-0.9 7.4-1.8 5.5-1.3 11.1-2.7 3.1-0.8 6.3-1.6 6.2-1.6 12.5-3.3 2.5-0.6 5-1.3 7-1.9 14.1-3.9 1.8-0.5 3.5-1 8-2.3 16.2-4.8 0.3-0.1 0.7-0.2c95.2-28.6 196.2-70.4 297.1-125q2.8-1.5 5.6-3.1 2-1.1 3.9-2.2c4.8-2.6 9.6-5.2 14.3-7.9q10.2-5.7 20.3-11.6 1.5-0.9 3.1-1.8 9.7-5.6 19.3-11.4 7.7-4.6 15.4-9.3c6.2-3.8 12.4-7.7 18.5-11.6q2.6-1.6 5.2-3.2 8.6-5.5 17-11.1 2.9-1.9 5.9-3.8 8.4-5.6 16.6-11.2 2.5-1.7 5-3.4c5.9-4 11.6-8 17.4-12q5.2-3.7 10.4-7.5c4.1-2.9 8.2-5.8 12.2-8.8 3.6-2.6 7.2-5.3 10.7-7.9q8.7-6.5 17.2-13 1.5-1.2 3-2.3 7.9-6.1 15.6-12.2c5.8-4.7 11.6-9.3 17.2-13.9 2.7-2.2 5.3-4.4 8-6.7 4.2-3.5 8.4-7 12.6-10.6 2.7-2.3 5.4-4.6 8.1-7q4.5-3.9 9-7.9 5.3-4.6 10.4-9.3c3.9-3.6 7.8-7.1 11.6-10.6 4.7-4.4 9.2-8.7 13.8-13 1.6-1.6 3.2-3.1 4.8-4.7q3.3-3.2 6.6-6.5c1.4-1.3 2.7-2.7 4-4 4.5-4.5 9-8.9 13.3-13.4l0.3-0.3q5.6-5.8 11-11.5 1.5-1.7 3-3.3c74.9-80.4 125.3-160.8 144.3-232.4l-110.9-266.3z"/>
			<path id="&lt;Path&gt;" class="s2" d="m743.1 442.2l-200.8 308.1c8 37 35.1 82.7 110.1 121.4 0 0 40.2 11.9 69.5 40.2q2.5 2.5 5 5.2 3.3-2.4 7.1-4.2c9.6-4.9 19.9-6.8 29.9-6.2q0.1 0 0.1 0c20 1.4 38.8 12.9 48.4 32.1q2.2 4.4 3.6 8.9c93.9-0.2 185.3-15 269.7-57q2.7-1.4 5.5-2.8c37.3-19.1 75.4-42.8 104.1-74.4q3.4-3.9 6.7-7.8c4.8-6 9.4-12.2 13.5-18.7q1.8-2.8 3.7-6.1c23.2-22.4 31-53.2 17-74.7-5-7.8-12.4-13.5-21.2-17q-0.1-0.1-0.3-0.1 0.2 0 0.4 0.1c11.7 2.9 22 9.7 28.8 21.6 15.4 26.7-1.5 62.5-20.6 89.3-5.2 7.4-10.6 14.1-15.6 19.7q-1.4 1.6-2.7 3c-30.1 32.9-68.5 57.7-108.1 77.9q-7.9 4-15.8 7.8c-82.9 39.5-170.1 61.5-262.4 56.6 0 21.4-11.8 41.9-32.2 52.2-26.4 13.3-58 4.7-74.3-18.9-11.4 8.6-24.6 16.8-39.9 23.6q-4.2 1.8-8.4 3.5c-17.9 6.9-35.8 10.8-53.3 12.5-85.4 8.1-162-37.6-182.1-49.6-10.3-6.1-19.9-12.6-28.8-19.3l-247.8 380.1 455.6-85.8 607.3-114.4 117.5-22.2 271.2-51.1 107.2-190.3 136.6-242.7 264.1-468.9z"/>
			<path id="&lt;Path&gt;" class="s3" d="m1236.2 706.2c-5-7.8-12.4-13.5-21.2-17q-0.1-0.1-0.3-0.1c-16.5-6.5-38-5.2-58.3 4.2q-6.2 2.9-12.1 6.7c-34.2 22.2-48.5 60.9-31.9 86.5 3.3 5 7.4 9.1 12.2 12.3 12.7 19.1 41.1 24.1 70.7 14.7q3.4-3.9 6.7-7.8c4.8-6 9.4-12.2 13.5-18.7q1.8-2.8 3.7-6.1c23.2-22.4 31-53.2 17-74.7z"/>
			<path id="&lt;Path&gt;" class="s4" d="m1710.7 885.4l-107.2 190.3 22.3 58.3 107.7-192.3 136.7-244.1 256.6-458.2-15.4-65.6-264.1 468.9z"/>
			<path id="&lt;Path&gt;" class="s2" d="m1355.5 1183.9l-132.6 24.4-592 109.2 120.2 288.8 8.4 20.1c38.2 12.5 83.7 18.6 134.6 18.6q7.4 0 15-0.1c2-0.1 4-0.2 6-0.2 3.1-0.1 6.2-0.2 9.3-0.4 2.5-0.1 5-0.2 7.5-0.4 2.7-0.1 5.4-0.3 8.1-0.4 2.8-0.2 5.6-0.5 8.4-0.7 2.5-0.2 5-0.3 7.5-0.6 3-0.2 6-0.5 9-0.8 2.4-0.3 4.7-0.5 7.1-0.7 3.1-0.4 6.3-0.7 9.5-1.1 2.3-0.3 4.6-0.5 6.9-0.8 3.2-0.4 6.4-0.9 9.7-1.3q3.4-0.5 6.9-1c3.3-0.5 6.5-1 9.8-1.5q3.6-0.5 7.2-1.1 4.8-0.8 9.6-1.6 3.8-0.7 7.6-1.4 4.7-0.8 9.4-1.7 4-0.8 8.1-1.6 4.4-0.9 8.9-1.8 4.4-0.9 8.9-1.9 4.1-0.9 8.3-1.8 4.9-1.1 9.8-2.2 3.7-0.9 7.4-1.8 5.5-1.3 11.1-2.7 3.1-0.8 6.3-1.6 6.2-1.6 12.5-3.3 2.5-0.6 5-1.3 7-1.9 14.1-3.9 1.8-0.5 3.5-1 8-2.3 16.2-4.8 0.3-0.1 0.7-0.2c95.2-28.6 196.2-70.4 297.1-125q2.8-1.5 5.6-3.1z"/>
			<path id="&lt;Path&gt;" class="s5" d="m894.1 1645q7.4 0 15-0.1c2-0.1 4-0.2 6-0.2 3.1-0.1 6.2-0.2 9.3-0.4 2.5-0.1 5-0.2 7.5-0.4 2.7-0.1 5.4-0.3 8.1-0.4 2.8-0.2 5.6-0.5 8.4-0.7 2.5-0.2 5-0.3 7.5-0.6 3-0.2 6-0.5 9-0.8 2.4-0.3 4.7-0.5 7.1-0.7 3.1-0.4 6.3-0.7 9.5-1.1 2.3-0.3 4.6-0.5 6.9-0.8 3.2-0.4 6.4-0.9 9.7-1.3q3.4-0.5 6.9-1c3.3-0.5 6.5-1 9.8-1.5q3.6-0.5 7.2-1.1 4.8-0.8 9.6-1.6 3.8-0.7 7.6-1.4 4.7-0.8 9.4-1.7 4-0.8 8.1-1.6 4.4-0.9 8.9-1.8 4.4-0.9 8.9-1.9 4.1-0.9 8.3-1.8 4.9-1.1 9.8-2.2 3.7-0.9 7.4-1.8 5.5-1.3 11.1-2.7 3.1-0.8 6.3-1.6 6.2-1.6 12.5-3.3 2.5-0.6 5-1.3 7-1.9 14.1-3.9 1.8-0.5 3.5-1 8-2.3 16.2-4.8 0.3-0.1 0.7-0.2c35.9-86.8 55.7-180.1 57.9-268.7 1-38.3-0.1-79.9-4.4-122.3l-592 109.2 120.2 288.8 8.4 20.1c38.2 12.5 83.7 18.6 134.6 18.6z"/>
			<path id="&lt;Path&gt;" class="s2" d="m1836.8 1196.3c74.9-80.4 125.3-160.8 144.3-232.4l-110.9-266.3-136.7 244.1z"/>
			<path id="&lt;Path&gt;" class="s3" d="m1243.9 710.8c15.4 26.7-1.5 62.5-20.6 89.3q0.2-0.1 0.4-0.2c38.2-24.8 55.7-65.6 39.1-91.2-9.2-14.3-27.1-20.8-47.7-19.5 11.7 2.9 22 9.7 28.8 21.6z"/>
			<path id="&lt;Path&gt;" class="s6" d="m713.7 922.6c-16.3 5.2-50.8-15.7-64.7-23-21.3-11.1-41.7-23.8-63.8-33.2 26.5 20.7 61.8 30 86 54.2 6.5 6.5 22.2 19.7 16.7 30.4-3.5 6.7-18.5 9.5-25.2 9-22.9-1.7-45.7-7.9-68.3-12.4 18.6 12.6 64.1 5 76.5 29.2 9.3 18.4-42.2 27.2-54 28.9 14.2 1.9 30-3.2 44.5-3.8 8.4-0.4 14.3 1.5 15.7 4.7 1.3 2.8-0.9 6.6-7.8 10.9q-0.4 0.3-0.8 0.5c-15.5 9.2-34.4 12.1-51.3 17.8q-3.3 1.1-6.6 2.2c17.5-1.7 35.4-5.6 53.3-12.5q4.2-1.7 8.4-3.5c15.3-6.8 28.5-15 39.9-23.6q-2.3-3.3-4.2-7.1c-2.8-5.5-4.6-11.4-5.6-17.3q0 0 0 0c-3.3-21.8 5.9-44.1 24.5-56.9q-2.5-2.7-5-5.2c0.6 4.7-1.7 8.6-8.2 10.7z"/>
			<path id="&lt;Path&gt;" class="s7" d="m708.6 966.6q0 0 0 0c0.6 4 1.8 7.9 3.7 11.7 2.5 4.8 5.8 8.9 9.6 12.2 11.6 9.8 28.4 12.3 42.7 5.1 19.3-9.7 27-33.1 17.3-52.4-6.5-12.9-19.3-20.7-32.8-21.4q0 0 0 0c-5.4-0.2-10.8 0.6-16 2.6q-1.8 0.7-3.5 1.5c-15.4 7.8-23.5 24.5-21 40.7z"/>
			<path id="&lt;Path&gt;" class="s7" d="m764.2 1016.6c3.5 5 15.7 2.6 27.1-5.4 11.4-8.1 17.7-18.7 14.2-23.8-3.6-5-15.7-2.6-27.1 5.4-11.5 8.1-17.8 18.7-14.2 23.8z"/>
			<path id="&lt;Path&gt;" class="s7" d="m479.6 811.8q7.4 6.4 14.9 11.8c32.4 23.4 64.1 33.1 82.5 37.4-31.3-16.2-54.3-35.3-70.9-55.1-59.2-70.4-40-150.9-40-150.9l-60.9 30.7c4.5 20.8 20.2 79.5 74.4 126.1z"/>
			<path id="&lt;Path&gt;" class="s7" d="m455.2 883.9c-77.8-58.1-118.1-131.3-118.1-131.3l-26 42.2c33.8 53.1 83.1 87.6 130.4 110.1 73.1 34.6 141.5 40.3 141.5 40.3-50.1-12.1-92.7-35.2-127.8-61.3z"/>
			<path id="&lt;Path&gt;" class="s4" d="m1198.2 796.4q3.1-1.7 6.2-3.7c5.5-3.5 10.4-7.5 14.8-11.8 23.2-22.4 31-53.2 17-74.7-5-7.8-12.4-13.5-21.2-17q-0.1-0.1-0.3-0.1c-16.5-6.5-38-5.2-58.3 4.2q-6.2 2.9-12.1 6.7c-34.2 22.2-48.5 60.9-31.9 86.5 3.3 5 7.4 9.1 12.2 12.3 18.6 12.5 47.5 12 73.6-2.4z"/>
			<path id="&lt;Path&gt;" class="s6" d="m1046.8 1800.4q-1.4 0-2.9 0.1c52.8-57.8 94.9-127.1 125.5-201.1-100.7 30.2-194.8 45.6-275.3 45.6-50.9 0-96.4-6.1-134.6-18.6l22.8 54.8q3.9 13 10.4 25c34.5 63.8 117.1 94.8 227 94.8q1.4 0 2.8 0 5.9 0 11.8-0.2c1.4 0 2.7-0.1 4-0.1q0.4 0 0.8 0 0.6 0 1.3-0.1 1.7 0 3.5-0.1 1.7-0.1 3.4-0.1h0.3q0.4-0.1 0.8-0.1 0.8 0 1.6-0.1-1.6 0.1-3.2 0.2z"/>
			<path id="&lt;Path&gt;" class="s7" d="m1836.8 1196.4c-90 96.7-215.6 193.4-364.7 274.8l71 175q1.7-0.9 3.4-1.8 1.1-0.6 2.2-1.2c147.9-80 271.1-176.4 356-272q0 0 0.1 0 1-1.2 2.1-2.4h-0.1z"/>
		</g>
	</g>
</svg>